<svg xmlns="http://www.w3.org/2000/svg" width="1160" height="520" viewBox="0 0 1160 520" role="img" aria-label="meme panels">
<defs><clipPath id="pclip"><rect width="360" height="230" rx="14"/></clipPath></defs>
<rect width="1160" height="520" rx="20" fill="#1b2a4a"/>
<g transform="translate(20,20)">
  <rect width="360" height="230" rx="14" fill="#ff6b6b" stroke="#16213e" stroke-width="5"/>
  <g clip-path="url(#pclip)"><rect y="140" width="215" height="46" fill="#43a047"/><rect y="140" width="215" height="9" fill="#76d275"/>
<rect x="285" y="140" width="75" height="46" fill="#43a047"/><rect x="285" y="140" width="75" height="9" fill="#76d275"/>
<g><animateTransform attributeName="transform" type="translate" values="0 0;150 0;150 0;170 90;170 90;0 0" keyTimes="0;0.5;0.55;0.8;0.92;1" dur="4s" repeatCount="indefinite"/>
  <rect x="40" y="104" width="30" height="36" fill="#e53935"/><rect x="45" y="76" width="22" height="24" fill="#ffcc80"/>
  <rect x="41" y="70" width="30" height="9" fill="#e53935"/><rect x="50" y="84" width="5" height="6" fill="#222"/><rect x="59" y="84" width="5" height="6" fill="#222"/>
</g>
<text x="248" y="60" text-anchor="middle" font-size="30">&#128128;</text></g>
  <rect y="186" width="360" height="44" rx="0" fill="#16213e"/>
  <rect y="216" width="360" height="14" rx="12" fill="#16213e"/>
  <text x="180" y="216" text-anchor="middle" fill="#ffe14d" font-family="'Arial Black',Impact,sans-serif" font-size="17">FRIDAY DEPLOY</text>
</g><g transform="translate(400,20)">
  <rect width="360" height="230" rx="14" fill="#4ecdc4" stroke="#16213e" stroke-width="5"/>
  <g clip-path="url(#pclip)"><rect x="118" y="62" width="56" height="56" rx="8" fill="#fff" stroke="#16213e" stroke-width="5"/>
<text x="196" y="106" fill="#16213e" font-family="'Arial Black',Impact,sans-serif" font-size="26">TESTS</text>
<g><animateTransform attributeName="transform" type="translate" values="120 60;18 6;18 6;120 60;120 60" keyTimes="0;0.35;0.5;0.85;1" dur="3.4s" repeatCount="indefinite"/>
  <path d="M150 84 l0 30 l8 -8 l6 13 l7 -3 l-6 -13 l11 0 z" fill="#fff" stroke="#16213e" stroke-width="4" stroke-linejoin="round"/>
</g></g>
  <rect y="186" width="360" height="44" rx="0" fill="#16213e"/>
  <rect y="216" width="360" height="14" rx="12" fill="#16213e"/>
  <text x="180" y="216" text-anchor="middle" fill="#ffe14d" font-family="'Arial Black',Impact,sans-serif" font-size="17">MY TESTING STRATEGY</text>
</g><g transform="translate(780,20)">
  <rect width="360" height="230" rx="14" fill="#ffd93d" stroke="#16213e" stroke-width="5"/>
  <g clip-path="url(#pclip)"><g><rect x="26" y="46" width="130" height="92" rx="8" fill="#16213e"/><rect x="72" y="138" width="38" height="14" fill="#16213e"/>
  <text x="91" y="106" text-anchor="middle" font-size="44" fill="#4ade80" font-family="'Arial Black',sans-serif">&#10003;</text>
  <text x="91" y="170" text-anchor="middle" fill="#16213e" font-family="'Arial Black',sans-serif" font-size="14">MINE</text></g>
<g><rect x="204" y="46" width="130" height="92" rx="8" fill="#16213e"/><rect x="250" y="138" width="38" height="14" fill="#16213e"/>
  <text x="269" y="108" text-anchor="middle" font-size="44" fill="#ff5252" font-family="'Arial Black',sans-serif">&#10007;
    <animate attributeName="opacity" values="1;0.15;1" dur="0.7s" repeatCount="indefinite"/></text>
  <text x="269" y="170" text-anchor="middle" fill="#16213e" font-family="'Arial Black',sans-serif" font-size="14">YOURS</text></g></g>
  <rect y="186" width="360" height="44" rx="0" fill="#16213e"/>
  <rect y="216" width="360" height="14" rx="12" fill="#16213e"/>
  <text x="180" y="216" text-anchor="middle" fill="#ffe14d" font-family="'Arial Black',Impact,sans-serif" font-size="17">WORKS ON MY MACHINE</text>
</g><g transform="translate(20,270)">
  <rect width="360" height="230" rx="14" fill="#a06cd5" stroke="#16213e" stroke-width="5"/>
  <g clip-path="url(#pclip)"><rect x="34" y="82" width="292" height="34" rx="17" fill="#16213e"/>
<rect x="39" y="87" width="0" height="24" rx="12" fill="#4ade80">
  <animate attributeName="width" values="0;250;252;0" keyTimes="0;0.86;0.97;1" dur="5s" repeatCount="indefinite"/></rect>
<text x="180" y="62" text-anchor="middle" fill="#16213e" font-family="'Arial Black',sans-serif" font-size="19">npm install</text>
<text x="180" y="150" text-anchor="middle" fill="#16213e" font-family="'Arial Black',sans-serif" font-size="16">99%
  <animate attributeName="opacity" values="0;0;1;1;0" keyTimes="0;0.7;0.75;0.96;1" dur="5s" repeatCount="indefinite"/></text></g>
  <rect y="186" width="360" height="44" rx="0" fill="#16213e"/>
  <rect y="216" width="360" height="14" rx="12" fill="#16213e"/>
  <text x="180" y="216" text-anchor="middle" fill="#ffe14d" font-family="'Arial Black',Impact,sans-serif" font-size="17">THE ETERNAL WAIT</text>
</g><g transform="translate(400,270)">
  <rect width="360" height="230" rx="14" fill="#ff9f1c" stroke="#16213e" stroke-width="5"/>
  <g clip-path="url(#pclip)"><g fill="#16213e"><path d="M20 96 h96 l0 -20 l40 26 l-40 26 l0 -20 h-96 z">
    <animateTransform attributeName="transform" type="translate" values="0 0;44 0;0 0;0 0" keyTimes="0;0.4;0.55;1" dur="2.6s" repeatCount="indefinite"/></path>
  <path d="M340 96 h-96 l0 -20 l-40 26 l40 26 l0 -20 h96 z">
    <animateTransform attributeName="transform" type="translate" values="0 0;-44 0;0 0;0 0" keyTimes="0;0.4;0.55;1" dur="2.6s" repeatCount="indefinite"/></path></g>
<g opacity="0"><animate attributeName="opacity" values="0;0;1;0;0" keyTimes="0;0.38;0.45;0.6;1" dur="2.6s" repeatCount="indefinite"/>
  <polygon fill="#fff" stroke="#16213e" stroke-width="4" points="180,32 194,74 236,60 212,98 254,112 210,124 226,164 186,140 180,180 168,140 128,164 144,124 100,112 142,98 118,60 160,74"/>
  <text x="180" y="118" text-anchor="middle" fill="#ff5252" font-family="'Arial Black',Impact,sans-serif" font-size="26">BOOM</text></g></g>
  <rect y="186" width="360" height="44" rx="0" fill="#16213e"/>
  <rect y="216" width="360" height="14" rx="12" fill="#16213e"/>
  <text x="180" y="216" text-anchor="middle" fill="#ffe14d" font-family="'Arial Black',Impact,sans-serif" font-size="17">MERGE CONFLICT</text>
</g><g transform="translate(780,270)">
  <rect width="360" height="230" rx="14" fill="#4d96ff" stroke="#16213e" stroke-width="5"/>
  <g clip-path="url(#pclip)"><rect x="24" y="46" width="140" height="120" rx="8" fill="#fff" stroke="#16213e" stroke-width="4"/>
<g fill="#16213e"><rect x="38" y="62" width="86" height="8" rx="4"/><rect x="38" y="80" width="106" height="8" rx="4"/>
  <rect x="38" y="98" width="70" height="8" rx="4"/><rect x="38" y="116" width="96" height="8" rx="4"/><rect x="38" y="134" width="58" height="8" rx="4"/></g>
<rect x="34" y="76" width="114" height="16" rx="4" fill="#4d96ff" opacity="0.55">
  <animate attributeName="opacity" values="0;0.55;0.55;0" keyTimes="0;0.15;0.45;0.55" dur="3.2s" repeatCount="indefinite"/></rect>
<rect x="196" y="46" width="140" height="120" rx="8" fill="#16213e"/>
<g fill="#4ade80"><rect x="210" y="62" width="86" height="8" rx="4"/><rect x="210" y="80" width="106" height="8" rx="4"/></g>
<rect x="210" y="98" width="106" height="8" rx="4" fill="#4ade80" opacity="0">
  <animate attributeName="opacity" values="0;0;1;1" keyTimes="0;0.55;0.62;1" dur="3.2s" repeatCount="indefinite"/></rect>
<text x="266" y="150" text-anchor="middle" fill="#ffe14d" font-family="'Arial Black',sans-serif" font-size="14">CTRL+V</text></g>
  <rect y="186" width="360" height="44" rx="0" fill="#16213e"/>
  <rect y="216" width="360" height="14" rx="12" fill="#16213e"/>
  <text x="180" y="216" text-anchor="middle" fill="#ffe14d" font-family="'Arial Black',Impact,sans-serif" font-size="17">MY REAL IDE</text>
</g>
</svg>